<svg width="48" height="48" viewBox="0 0 48 48" fill="none" xmlns="http://www.w3.org/2000/svg">
<path d="M14.6366 34.5968C13.2839 38.1642 9.29464 39.9617 5.72719 38.6136C4.2782 38.0633 3.18229 36.2842 2.48531 34.2529C1.62784 31.7584 1.49487 29.076 1.99926 26.4852L3.09059 20.8818L8.45092 24.2246C10.4272 25.4581 12.1284 27.1042 13.3527 29.0897C14.5128 30.9743 15.2144 33.0561 14.632 34.5968H14.6366Z" fill="#A49266"/>
<path d="M10.1386 21.1892C6.37396 21.8037 2.82028 19.2496 2.20583 15.4804C1.95822 13.9489 2.95325 12.1101 4.36556 10.4915C6.09884 8.50602 8.35486 7.04328 10.8493 6.19039L16.2463 4.33789L16.0354 10.652C15.9575 12.9814 15.3797 15.2787 14.27 17.3283C13.2154 19.2771 11.7664 20.9233 10.1432 21.1892H10.1386Z" fill="#A49266"/>
<path d="M19.5016 10.5923C17.0851 7.63934 17.5253 3.2832 20.4783 0.871281C21.6796 -0.109995 23.7706 -0.16502 25.8753 0.247666C28.4615 0.752061 30.855 1.98095 32.8451 3.70965L37.1508 7.45592L31.5749 10.4273C29.5161 11.5232 27.2417 12.1743 24.9124 12.2385C22.6976 12.2981 20.5471 11.8671 19.5062 10.5923H19.5016Z" fill="#A49266"/>
<path d="M33.3636 13.3983C34.7163 9.83087 38.7056 8.03339 42.273 9.3815C43.722 9.93175 44.8179 11.7109 45.5149 13.7422C46.3724 16.2367 46.5053 18.9191 46.0009 21.5099L44.9096 27.1133L39.5493 23.7705C37.573 22.537 35.8718 20.8909 34.6475 18.9054C33.4874 17.0208 32.7858 14.939 33.3681 13.3983H33.3636Z" fill="#A49266"/>
<path d="M37.8617 26.8061C41.6263 26.1916 45.18 28.7457 45.7944 32.5149C46.042 34.0464 45.047 35.8852 43.6347 37.5038C41.9014 39.4893 39.6454 40.952 37.1509 41.8049L31.7539 43.6574L31.9648 37.3433C32.0428 35.0139 32.6205 32.7167 33.7302 30.667C34.7849 28.7182 36.2338 27.072 37.8571 26.8061H37.8617Z" fill="#A49266"/>
<path d="M28.4939 37.4079C30.9104 40.3609 30.4703 44.717 27.5173 47.1289C26.3159 48.1102 24.2249 48.1652 22.1202 47.7525C19.5341 47.2481 17.1405 46.0192 15.1504 44.2906L10.8447 40.5443L16.4206 37.5729C18.4794 36.477 20.7538 35.8259 23.0832 35.7617C25.2979 35.7021 27.4485 36.1331 28.4894 37.4079H28.4939Z" fill="#A49266"/>
</svg>
