<?xml version="1.0" encoding="UTF-8"?>
<svg id="Layer_2" data-name="Layer 2" xmlns="http://www.w3.org/2000/svg" xmlns:xlink="http://www.w3.org/1999/xlink" viewBox="0 0 38 38">
  <defs>
    <style>
      .cls-1 {
        fill: none;
      }

      .cls-2 {
        fill: #a49266;
      }

      .cls-3 {
        clip-path: url(#clippath);
      }
    </style>
    <clipPath id="clippath">
      <rect class="cls-1" width="38" height="38"/>
    </clipPath>
  </defs>
  <g id="Layer_1-2" data-name="Layer 1">
    <g class="cls-3">
      <g>
        <path class="cls-2" d="M5.38,30.31c-3.17-1.03-4.91-4.44-3.88-7.61.42-1.29,1.93-2.32,3.68-3.01,2.14-.85,4.48-1.08,6.76-.74l4.94.72-2.7,4.82c-.99,1.78-2.36,3.33-4.05,4.48-1.68,1.15-3.39,1.79-4.76,1.34h0Z"/>
        <path class="cls-2" d="M2.4,12.85c-.69-3.26,1.39-6.47,4.65-7.16,1.33-.28,2.97.51,4.44,1.68,1.81,1.43,3.17,3.34,4.02,5.48l1.84,4.64-5.52.08c-2.04.03-4.07-.38-5.9-1.27-1.83-.88-3.24-2.04-3.54-3.45Z"/>
        <path class="cls-2" d="M16.02,1.55c2.48-2.23,6.3-2.03,8.53.45.91,1.01,1.04,2.83.77,4.69-.33,2.28-1.31,4.42-2.74,6.23l-3.09,3.91-2.83-4.75c-1.04-1.75-1.7-3.71-1.86-5.74-.15-2.03.14-3.83,1.21-4.79Z"/>
        <path class="cls-2" d="M32.62,7.7c3.17,1.03,4.91,4.44,3.88,7.61-.42,1.29-1.93,2.32-3.68,3.01-2.14.85-4.48,1.08-6.76.74l-4.94-.72,2.7-4.82c.99-1.78,2.36-3.33,4.05-4.48,1.68-1.15,3.39-1.79,4.76-1.34h0Z"/>
        <path class="cls-2" d="M35.6,25.15c.69,3.26-1.39,6.47-4.65,7.16-1.33.28-2.97-.51-4.44-1.68-1.81-1.43-3.17-3.34-4.02-5.48l-1.84-4.64,5.52-.08c2.04-.03,4.07.38,5.9,1.27,1.83.88,3.24,2.04,3.54,3.45Z"/>
        <path class="cls-2" d="M21.98,36.45c-2.48,2.23-6.3,2.03-8.53-.45-.91-1.01-1.04-2.83-.77-4.69.33-2.28,1.31-4.42,2.74-6.23l3.09-3.91,2.83,4.75c1.04,1.75,1.7,3.71,1.86,5.74.15,2.03-.14,3.83-1.21,4.79Z"/>
      </g>
    </g>
  </g>
</svg>