<svg width="49" height="48" viewBox="0 0 49 48" fill="none" xmlns="http://www.w3.org/2000/svg">
<g clip-path="url(#clip0_676_534)">
<path d="M13.6902 27.7277C16.9096 27.8251 19.4427 30.4699 19.3388 33.6286C19.2982 34.9133 18.1739 36.2467 16.7426 37.341C14.9861 38.6833 12.8775 39.5073 10.674 39.8085L5.90137 40.4597L7.10243 35.3607C7.54493 33.4779 8.3938 31.7015 9.64454 30.213C10.8953 28.7244 12.304 27.6878 13.6902 27.7277Z" fill="#A49266"/>
<path d="M15.7856 16.7148C17.3073 19.5013 16.2417 22.9701 13.4015 24.4674C12.2456 25.0744 10.5072 24.7864 8.82757 24.1175C6.76408 23.2935 4.98055 21.9157 3.61242 20.1924L0.650391 16.4623L5.75266 14.9295C7.63553 14.3624 9.62677 14.1985 11.5683 14.5175C13.5099 14.8364 15.1264 15.5142 15.7856 16.7148Z" fill="#A49266"/>
<path d="M26.5547 12.9846C24.8569 15.6737 21.2583 16.5021 18.522 14.8319C17.4112 14.1541 16.7926 12.5327 16.5443 10.7695C16.2418 8.60766 16.5624 6.40148 17.4022 4.37693L19.2128 0L23.114 3.57065C24.5544 4.88639 25.6968 6.49894 26.3876 8.30641C27.0785 10.1139 27.2907 11.8283 26.5547 12.989V12.9846Z" fill="#A49266"/>
<path d="M35.2328 20.2721C32.0134 20.1746 29.4803 17.5299 29.5841 14.3712C29.6248 13.0865 30.7491 11.7531 32.1804 10.6588C33.9369 9.3165 36.0455 8.49251 38.249 8.19126L43.0216 7.54004L41.8206 12.6391C41.3781 14.5219 40.5292 16.2983 39.2784 17.7868C38.0277 19.2753 36.6189 20.312 35.2328 20.2721Z" fill="#A49266"/>
<path d="M33.1378 31.2853C31.6161 28.4988 32.6817 25.03 35.5219 23.5326C36.6778 22.9257 38.4161 23.2137 40.0958 23.8826C42.1593 24.7066 43.9429 26.0844 45.311 27.8077L48.273 31.5378L43.1707 33.0706C41.2879 33.6377 39.2966 33.8016 37.3551 33.4826C35.4135 33.1636 33.797 32.4858 33.1378 31.2853Z" fill="#A49266"/>
<path d="M22.3691 35.0153C24.0668 32.3262 27.6655 31.4978 30.4017 33.168C31.5125 33.8458 32.1311 35.4672 32.3794 37.2303C32.682 39.3922 32.3614 41.5984 31.5215 43.623L29.7109 48.0043L25.8097 44.4337C24.3693 43.1179 23.227 41.5054 22.5361 39.6979C21.8453 37.8904 21.6331 36.176 22.3691 35.0153Z" fill="#A49266"/>
</g>
<defs>
<clipPath id="clip0_676_534">
<rect width="48.9231" height="48" fill="white"/>
</clipPath>
</defs>
</svg>
