<svg width="48" height="48" viewBox="0 0 48 48" fill="none" xmlns="http://www.w3.org/2000/svg">
<g clip-path="url(#clip0_676_552)">
<path d="M24 48C10.7692 48 0 37.2308 0 24C0 10.7692 10.7692 0 24 0C37.2308 0 48 10.7692 48 24C48 37.2308 37.2308 48 24 48ZM24 3.69231C12.8 3.69231 3.69231 12.8 3.69231 24C3.69231 35.2 12.8 44.3077 24 44.3077C35.2 44.3077 44.3077 35.2 44.3077 24C44.3077 12.8 35.2 3.69231 24 3.69231Z" fill="#A49266"/>
<path d="M23.9995 34.1539C18.3995 34.1539 13.8457 29.6 13.8457 24C13.8457 18.4 18.3995 13.8462 23.9995 13.8462C29.5995 13.8462 34.1534 18.4 34.1534 24C34.1534 29.6 29.5995 34.1539 23.9995 34.1539ZM23.9995 17.5385C20.4365 17.5385 17.538 20.437 17.538 24C17.538 27.5631 20.4365 30.4616 23.9995 30.4616C27.5626 30.4616 30.4611 27.5631 30.4611 24C30.4611 20.437 27.5626 17.5385 23.9995 17.5385Z" fill="#A49266"/>
</g>
<defs>
<clipPath id="clip0_676_552">
<rect width="48" height="48" fill="white"/>
</clipPath>
</defs>
</svg>
