<svg width="118" height="121" viewBox="0 0 118 121" fill="none" xmlns="http://www.w3.org/2000/svg">
<g clip-path="url(#clip0_676_1617)">
<path d="M33.233 88.8597C20.5935 90.5287 8.98783 81.6427 7.31881 69.0032C6.64959 63.866 10.1522 57.8294 15.0289 52.5509C21.0106 46.0906 28.6974 41.4382 37.1144 38.8246L55.3302 33.1798L53.9845 54.249C53.4805 62.0334 51.3286 69.6357 47.4166 76.37C43.5046 83.1043 38.6917 88.1183 33.233 88.8597Z" fill="#A49266"/>
</g>
<g clip-path="url(#clip1_676_1617)">
<path d="M79.9625 91.6126C67.323 93.2816 55.7173 84.3956 54.0483 71.7561C53.3791 66.6189 56.8817 60.5823 61.7583 55.3038C67.7401 48.8435 75.4269 44.1911 83.8439 41.5776L102.06 35.9328L100.714 57.0019C100.21 64.7863 98.0581 72.3886 94.1461 79.1229C90.2341 85.8573 85.4212 90.8712 79.9625 91.6126Z" fill="#A49266"/>
</g>
<defs>
<clipPath id="clip0_676_1617">
<rect width="40.7742" height="64.3953" fill="white" transform="translate(32.675 96.6265) rotate(-143.26)"/>
</clipPath>
<clipPath id="clip1_676_1617">
<rect width="40.7742" height="64.3953" fill="white" transform="translate(79.4045 99.3794) rotate(-143.26)"/>
</clipPath>
</defs>
</svg>
