<svg width="100" height="52" viewBox="0 0 100 52" fill="none" xmlns="http://www.w3.org/2000/svg">
<g clip-path="url(#clip0_676_1266)">
<path d="M9.79856 2.75252C17.626 -1.24429 27.2261 1.91168 31.2273 9.80934C32.854 13.0193 31.9609 17.785 30.0113 22.3532C27.6174 27.9657 23.6845 32.7717 18.8203 36.4187L8.2929 44.3019L4.30197 30.184C2.82761 24.9742 2.47467 19.4916 3.46148 14.1838C4.44829 8.87607 6.41405 4.47154 9.79856 2.75252Z" fill="#A49266"/>
<path d="M54.9453 44.0425C47.1207 48.0597 37.5492 44.9208 33.5695 37.0227C31.9574 33.8158 32.8545 29.0428 34.8106 24.4673C37.2187 18.8501 41.1444 14.0295 46.0078 10.3732L56.5371 2.45463L60.4899 16.576C61.9536 21.7847 62.2909 27.2725 61.2993 32.5902C60.3077 37.9078 58.3314 42.3131 54.952 44.0493L54.9453 44.0425Z" fill="#A49266"/>
<path d="M79.8464 4.75855C88.3532 2.55796 97.0181 7.73068 99.1932 16.3096C100.081 19.7982 98.1615 24.2536 95.2602 28.2881C91.6895 33.2373 86.8125 37.0762 81.2695 39.5751L69.2734 44.9777L68.4744 30.3382C68.1772 24.9362 69.0345 19.5046 71.1623 14.5394C73.29 9.57418 76.1693 5.70437 79.8464 4.75855Z" fill="#A49266"/>
</g>
<defs>
<clipPath id="clip0_676_1266">
<rect width="100" height="52" fill="white"/>
</clipPath>
</defs>
</svg>
